<?xml version="1.0" encoding="UTF-8"?> <!-- Generator: Adobe Illustrator 25.2.3, SVG Export Plug-In . SVG Version: 6.00 Build 0) --> <svg xmlns="http://www.w3.org/2000/svg" xmlns:xlink="http://www.w3.org/1999/xlink" version="1.1" id="Capa_1" x="0px" y="0px" viewBox="0 0 365.3 360.2" style="enable-background:new 0 0 365.3 360.2;" xml:space="preserve"> <style type="text/css"> .st0{fill:#FFFFFF;} .st1{fill-rule:evenodd;clip-rule:evenodd;fill:#FFFFFF;} .st2{clip-path:url(#SVGID_2_);fill-rule:evenodd;clip-rule:evenodd;fill:#EDEDED;} </style> <g> <path class="st0" d="M182.7,123.6h123.6v59.9H182.7V123.6z M59.1,123.6C59.1,55.3,114.4,0,182.7,0c34.1,0,65,13.8,87.4,36.2 l-42.3,42.3c-11.5-11.5-27.5-18.7-45-18.7c-35.2,0-63.7,28.5-63.7,63.7s28.5,63.7,63.7,63.7h59.9v59.9h-59.9 C114.4,247.1,59.1,191.8,59.1,123.6z M246.4,187.3h59.9v59.9h-59.9V187.3z"></path> <path class="st0" d="M319.8,358.3h-20l22.4-62.5h20.8l22.4,62.5h-20.4l-2.4-8.2h-20.4L319.8,358.3z M339,337.1l-6.6-22.4l-6.3,22.4 H339z M296.4,358.3h-40.1v-62.5h40.1v14.6h-19.6v8.9h19.6V334h-19.6v9.8h19.6V358.3z M202,358.3h-20.5v-62.5H202V358.3z M176.4,358.3h-41.6v-62.5h20.5v47.9h21.1V358.3z M86.6,358.3h-20L89,295.9h20.8l22.4,62.5h-20.4l-2.4-8.2H89L86.6,358.3z M105.8,337.1l-6.6-22.4l-6.3,22.4H105.8z M251.2,358.3h-41.6v-62.5h20.5v47.9h21.1V358.3z"></path> <path class="st1" d="M63.1,326.5H37.3v11.3h6.8c-1,4.3-6.3,7.2-10.5,7.2c-10.3,0-13.1-8.1-13.1-16.9c0-11,3.8-18.3,11.9-18.3 c5.3,0,9,2.8,10.5,7.9h19.4c-2.5-15.4-14.6-23.2-29.6-23.2C12.5,294.4,0,308.1,0,328.1c0,21.8,14.3,32.1,30.3,32.1 c5.3,0,8-0.6,12.5-2.7l0,1.2h20.3V326.5z"></path> <g> <defs> <path id="SVGID_1_" d="M63.1,326.5H37.3v11.3h6.8c-1,4.3-6.3,7.2-10.5,7.2c-10.3,0-13.1-8.1-13.1-16.9c0-11,3.8-18.3,11.9-18.3 c5.3,0,9,2.8,10.5,7.9h19.4c-2.5-15.4-14.6-23.2-29.6-23.2C12.5,294.4,0,308.1,0,328.1c0,21.8,14.3,32.1,30.3,32.1 c5.3,0,8-0.6,12.5-2.7l0,1.2h20.3V326.5z"></path> </defs> <clipPath id="SVGID_2_"> <use xlink:href="#SVGID_1_" style="overflow:visible;"></use> </clipPath> <polygon class="st2" points="62.2,298.2 62.2,317.6 42.8,317.6 "></polygon> </g> </g> </svg> 