<?xml version="1.0" encoding="UTF-8"?><svg id="a" xmlns="http://www.w3.org/2000/svg" viewBox="0 0 406.68 430.22"><defs><style>.b{fill:#fff;}</style></defs><path class="b" d="M319.68,149.42v40.78h-97.45c-14.71,0-26.63-11.92-26.63-26.63v-14.14c0-14.71,11.92-26.63,26.63-26.63h70.82c14.71,0,26.63,11.92,26.63,26.63Zm-119.41,54.15v-.11c-40.18-.03-72.74-32.34-72.74-72.19s32.59-72.2,72.8-72.2c15.81,0,30.43,5,42.36,13.49,5.28,3.76,12.49,3.2,17.08-1.38l25.52-25.52c4.45-4.45,4.04-11.75-.83-15.73C261.59,11.23,232.29,0,200.33,0,127.23,0,67.97,58.77,67.97,131.26s58.1,131.8,131.17,131.83l1.12,.04h92.94c14.62,0,26.47-11.85,26.47-26.47v-33.09h-119.41Z"/><g><path class="b" d="M38.07,380.9c-7.76,0-14.5-1.38-20.2-4.16-5.7-2.77-10.11-6.69-13.21-11.75-3.11-5.06-4.66-11.09-4.66-18.06s1.66-13.59,4.97-18.95c3.32-5.36,7.96-9.53,13.93-12.52,5.97-2.98,12.99-4.47,21.05-4.47,4.06,0,8.18,.46,12.36,1.39,3.42,.76,6.54,1.74,9.36,2.96,1.09,.47,1.67,1.66,1.44,2.83l-1.71,8.59c-.39,1.94-2.41,3.08-4.27,2.4-5.73-2.09-11.51-3.14-17.36-3.14-4.42,0-8.27,.84-11.56,2.5-3.29,1.67-5.82,4.01-7.61,7.02-1.79,3.01-2.69,6.57-2.69,10.68,0,6.32,1.88,11.22,5.64,14.71,3.76,3.49,9.05,5.23,15.85,5.23,1.49,0,2.99-.1,4.48-.31,1.49-.21,2.99-.52,4.48-.94v-11h-8.95c-1.39,0-2.52-1.12-2.52-2.51v-8.12c0-1.39,1.13-2.51,2.52-2.51h22.74c1.39,0,2.52,1.12,2.52,2.51v23.85c0,5.41-3.64,10.18-8.89,11.54-1.22,.31-2.46,.6-3.74,.86-4.6,.92-9.26,1.38-13.97,1.38Z"/><path class="b" d="M67.81,379.92l26.07-66.34c.38-.96,1.31-1.59,2.34-1.59h15.29c1.04,0,1.97,.63,2.34,1.59l26.07,66.34h-18.99l-5.29-15.82h-24.72l-5.29,15.82h-17.83Zm27.59-29.32h15.77l-7.88-23.87-7.88,23.87Z"/><path class="b" d="M145.3,379.92v-65.43c0-1.39,1.13-2.51,2.52-2.51h13.15c1.39,0,2.52,1.12,2.52,2.51v50.85h26.32c1.4,0,2.53,1.13,2.53,2.52v12.05h-47.03Z"/><path class="b" d="M198.96,379.92v-65.43c0-1.39,1.13-2.51,2.52-2.51h13.15c1.39,0,2.52,1.12,2.52,2.51v65.43h-18.19Z"/><path class="b" d="M227.8,379.92v-65.43c0-1.39,1.13-2.51,2.52-2.51h13.15c1.39,0,2.52,1.12,2.52,2.51v50.85h26.37c1.37,0,2.47,1.1,2.47,2.47v12.11h-47.03Z"/><path class="b" d="M281.46,379.92v-65.43c0-1.39,1.13-2.51,2.52-2.51h42.36c1.39,0,2.52,1.12,2.52,2.51v8.65c0,1.39-1.13,2.51-2.52,2.51h-28.3v13.05h24.63c1.39,0,2.52,1.12,2.52,2.51v8.65c0,1.39-1.13,2.51-2.52,2.51h-24.63v13.86h29.55c1.39,0,2.52,1.12,2.52,2.51v11.17h-48.64Z"/><path class="b" d="M334.31,379.92l26.07-66.34c.38-.96,1.31-1.59,2.34-1.59h15.29c1.04,0,1.97,.63,2.34,1.59l26.07,66.34h-18.99l-5.29-15.82h-24.72l-5.29,15.82h-17.83Zm27.59-29.32h15.77l-7.88-23.87-7.88,23.87Z"/></g><g><path class="b" d="M18.78,404.99c5.14,0,6.12,3.64,6.12,7.32v10.62h-2.78v-10.47c0-2.14-.56-5.07-3.72-5.07-2.89,0-4.5,2.82-4.5,6.27v9.27h-2.78v-10.47c0-2.14-.56-5.07-3.72-5.07-2.89,0-4.54,2.82-4.54,6.27v9.27H.09v-17.6H2.86l-.04,2.82h.11c.86-1.8,2.7-3.15,4.84-3.15,3.45,0,5.03,1.61,5.67,3.79,.75-2.18,2.85-3.79,5.33-3.79Z"/><path class="b" d="M40.15,420.61c-.68,.75-2.44,2.7-5.78,2.7s-6.04-2.14-6.04-5.37c0-3,2.21-5.1,7.02-5.33l4.77-.23v-.79c0-2.96-1.99-4.28-4.66-4.28s-4.73,1.05-5.22,1.39l-.94-1.99c1.16-.68,3.49-1.73,6.27-1.73,5.14,0,7.36,2.67,7.36,7.62v10.32h-2.74l-.04-2.33Zm-4.58-5.97c-3.27,.15-4.36,1.46-4.36,3.26s1.46,3.19,3.72,3.19c2.4,0,4.39-1.39,5.22-2.51v-4.17l-4.58,.23Zm1.91-17.6h2.96l-4.2,5.44h-2.21l3.45-5.44Z"/><path class="b" d="M52.77,421.1c1.91,0,3.75-.82,3.75-2.93s-2.96-2.82-4.32-3.27c-1.28-.41-5.03-1.28-5.03-4.99,0-3.23,2.81-4.92,5.67-4.92s4.54,.94,5.78,2.07l-1.35,1.69c-1.24-1.05-2.85-1.61-4.43-1.61-1.84,0-3.12,.86-3.12,2.52s1.8,2.36,3.75,3c1.77,.6,5.67,1.5,5.67,5.29,0,3.38-2.82,5.37-6.46,5.37-2.89,0-5.22-1.24-6.53-3.12l1.46-1.76c1.69,1.91,3.45,2.66,5.14,2.66Z"/><path class="b" d="M77.85,423.31c-5.18,0-8.67-3.57-8.67-9.23,0-4.99,3.42-9.08,8.67-9.08,4.84,0,8.18,3.49,8.18,8.33,0,.64-.11,1.46-.11,1.46h-13.89c.04,3.64,2.55,6.19,6.31,6.19,3.45,0,5.93-2.21,5.93-2.21l1.2,1.65c-1.61,1.91-4.17,2.89-7.62,2.89Zm-.11-15.99c-3.53-.04-5.44,2.63-5.67,5.37h11.15c0-2.48-1.61-5.33-5.48-5.37Z"/><path class="b" d="M94.82,421.1c1.91,0,3.75-.82,3.75-2.93s-2.96-2.82-4.32-3.27c-1.28-.41-5.03-1.28-5.03-4.99,0-3.23,2.81-4.92,5.67-4.92s4.54,.94,5.78,2.07l-1.35,1.69c-1.24-1.05-2.85-1.61-4.43-1.61-1.84,0-3.12,.86-3.12,2.52s1.8,2.36,3.75,3c1.76,.6,5.67,1.5,5.67,5.29,0,3.38-2.82,5.37-6.46,5.37-2.89,0-5.22-1.24-6.53-3.12l1.46-1.76c1.69,1.91,3.45,2.66,5.14,2.66Z"/><path class="b" d="M105.19,405.3h2.78v3.12h.04c.98-1.65,3.3-3.42,6.42-3.42,5.41,0,8.56,3.9,8.56,9.12s-3.57,9.2-8.48,9.2c-2.59,0-5.14-1.01-6.49-3.38l-.04-.04v10.1h-2.78v-24.7Zm14.9,8.82c0-3.83-2.21-6.79-6.12-6.79-3.53,0-6.12,2.96-6.12,6.79s2.1,6.76,6.04,6.76,6.19-2.97,6.19-6.76Z"/><path class="b" d="M137.14,420.61c-.68,.75-2.44,2.7-5.78,2.7s-6.04-2.14-6.04-5.37c0-3,2.21-5.1,7.02-5.33l4.77-.23v-.79c0-2.96-1.99-4.28-4.65-4.28s-4.73,1.05-5.22,1.39l-.94-1.99c1.16-.68,3.49-1.73,6.27-1.73,5.14,0,7.36,2.67,7.36,7.62v10.32h-2.74l-.04-2.33Zm-4.58-5.97c-3.27,.15-4.36,1.46-4.36,3.26s1.46,3.19,3.72,3.19c2.4,0,4.39-1.39,5.22-2.51v-4.17l-4.58,.23Z"/><path class="b" d="M152.35,423.35c-4.73,0-8.75-3.38-8.75-9.2s4.24-9.16,8.9-9.16c3.9,0,5.59,1.28,6.79,2.37l-1.24,2.18c-1.16-1.09-2.7-2.03-5.44-2.03-3.42,0-6.16,2.55-6.16,6.61s2.7,6.72,6.42,6.72,5.41-2.33,5.41-2.33l1.2,2.03c-.83,.94-2.7,2.82-7.13,2.82Z"/><path class="b" d="M164.14,401.2c-1.16,0-1.99-.83-1.99-1.91s.83-1.91,1.99-1.91,1.95,.83,1.95,1.91c-.04,1.09-.83,1.91-1.95,1.91Zm-1.39,4.13h2.78v17.6h-2.78v-17.6Z"/><path class="b" d="M169.74,414.19c0-5.37,4.02-9.2,9.16-9.2s9.2,3.83,9.2,9.2-4.05,9.12-9.2,9.12-9.16-3.72-9.16-9.12Zm15.5-.07c0-3.79-2.44-6.72-6.34-6.72s-6.31,2.93-6.31,6.72,2.4,6.76,6.31,6.76,6.34-3,6.34-6.76Z"/><path class="b" d="M218.93,408.37c-2.4,0-3.64,2.06-3.64,5.18v9.38h-4.8v-10.21c0-2.48-.64-4.35-2.93-4.35-2.48,0-3.57,2.33-3.57,5.18v9.38h-4.8v-18.17h4.8l-.04,2.74h.11c.83-1.69,3.04-3.08,5.41-3.08,2.63,0,4.2,1.05,5.07,3.45,1.28-2.21,3.34-3.45,5.97-3.45,4.77,0,6.08,3.38,6.08,7.55v10.96h-4.8v-10.17c0-2.21-.49-4.39-2.85-4.39Z"/><path class="b" d="M240.07,419.67c2.44,0,4.62-1.09,5.48-1.84l1.88,2.59c-1.01,1.05-3.75,2.93-8.18,2.93-5.48,0-9.53-3.34-9.53-9.2s4.24-9.72,9.42-9.72c5.59,0,8.97,3.68,8.97,8.52,0,.94-.07,2.44-.07,2.44h-13.36c.45,2.89,2.67,4.28,5.41,4.28Zm-5.48-7.4h8.71c-.07-1.99-.83-4.28-4.2-4.28-2.85,0-4.35,1.99-4.5,4.28Z"/><path class="b" d="M249.13,426.39c1.99,0,2.29-1.61,2.29-3.87v-17.75h4.8v17.98c0,2.21-.34,4.13-1.31,5.33-1.01,1.2-2.44,2.14-4.84,2.14-1.73,0-2.52-.34-2.52-.34l.08-3.75,.56,.26h.94Zm1.8-27.18c0-1.54,1.2-2.66,2.89-2.66s2.89,1.13,2.89,2.66-1.2,2.66-2.89,2.66-2.89-1.09-2.89-2.66Z"/><path class="b" d="M259.68,413.93c0-5.74,4.28-9.5,9.87-9.5s9.84,3.75,9.84,9.5-4.28,9.42-9.84,9.42-9.87-3.68-9.87-9.42Zm9.87-5.63c-3.15,0-4.88,2.4-4.88,5.52s1.73,5.56,4.88,5.56,4.88-2.44,4.88-5.56-1.8-5.52-4.88-5.52Z"/><path class="b" d="M287.46,404.77l-.07,2.93h.11c.71-1.95,2.52-3.27,4.47-3.27,1.24,0,1.91,.34,1.91,.34l-.34,4.17h-.22c-.53-.15-1.35-.23-1.99-.23-1.43,0-2.51,.6-3.19,1.76-.45,.9-.68,2.14-.68,3.53v8.93h-4.77v-18.17h4.77Z"/><path class="b" d="M308.68,407.36c1.46-2.18,3.64-3,6.04-3,5.33,0,8.6,4.13,8.6,9.53s-3.42,9.39-8.93,9.39c-2.78,0-4.32-.98-5.82-2.78l-.07,.04c.04,.86,.07,1.69,.07,2.96v6.31h-4.77v-25.04h4.88l-.07,2.55,.07,.04Zm-.23,6.53c0,3.04,1.99,5.71,5.07,5.71s4.92-2.66,4.92-5.71-1.95-5.63-5.07-5.63c-2.89,0-4.92,2.21-4.92,5.63Z"/><path class="b" d="M331.44,404.77l-.07,2.93h.11c.71-1.95,2.52-3.27,4.47-3.27,1.24,0,1.91,.34,1.91,.34l-.34,4.17h-.23c-.53-.15-1.35-.23-1.99-.23-1.43,0-2.52,.6-3.19,1.76-.45,.9-.68,2.14-.68,3.53v8.93h-4.77v-18.17h4.77Z"/><path class="b" d="M349.2,419.67c2.44,0,4.62-1.09,5.48-1.84l1.88,2.59c-1.01,1.05-3.75,2.93-8.18,2.93-5.48,0-9.53-3.34-9.53-9.2s4.24-9.72,9.42-9.72c5.59,0,8.97,3.68,8.97,8.52,0,.94-.07,2.44-.07,2.44h-13.36c.45,2.89,2.67,4.28,5.41,4.28Zm-5.48-7.4h8.71c-.07-1.99-.83-4.28-4.2-4.28-2.85,0-4.35,1.99-4.5,4.28Z"/><path class="b" d="M374.62,417.38l1.35,3.53c-.38,.34-2.25,2.44-7.09,2.44s-9.53-3.42-9.53-9.35,4.73-9.57,9.61-9.57c4.58,0,6.38,1.84,6.87,2.33l-1.31,3.6c-.56-.53-2.18-1.91-4.99-1.91s-5.14,1.99-5.14,5.33,2.29,5.52,5.41,5.52,4.84-1.91,4.84-1.91Z"/><path class="b" d="M378.23,399.21c0-1.54,1.2-2.66,2.89-2.66s2.89,1.13,2.89,2.66-1.2,2.66-2.89,2.66-2.89-1.09-2.89-2.66Zm5.29,5.56v18.17h-4.8v-18.17h4.8Z"/><path class="b" d="M386.98,413.93c0-5.74,4.28-9.5,9.87-9.5s9.84,3.75,9.84,9.5-4.28,9.42-9.84,9.42-9.87-3.68-9.87-9.42Zm9.87-5.63c-3.15,0-4.88,2.4-4.88,5.52s1.73,5.56,4.88,5.56,4.88-2.44,4.88-5.56-1.8-5.52-4.88-5.52Z"/></g></svg>