<?xml version="1.0" encoding="UTF-8"?><svg id="a" xmlns="http://www.w3.org/2000/svg" viewBox="0 0 406.42 380.91"><defs><style>.b{fill:#ea0029;}.c{fill:#1d252c;}</style></defs><path class="b" d="M319.68,149.42v40.78h-97.45c-14.71,0-26.63-11.92-26.63-26.63v-14.14c0-14.71,11.92-26.63,26.63-26.63h70.82c14.71,0,26.63,11.92,26.63,26.63h0Zm-119.41,54.14v-.11c-40.18-.03-72.74-32.34-72.74-72.19s32.59-72.2,72.8-72.2c15.81,0,30.43,5,42.36,13.49,5.28,3.76,12.49,3.2,17.08-1.38l25.52-25.52c4.45-4.45,4.04-11.75-.83-15.73C261.59,11.23,232.29,0,200.33,0,127.23,0,67.97,58.77,67.97,131.26s58.1,131.8,131.17,131.83l1.12,.04h92.94c14.62,0,26.47-11.85,26.47-26.47v-33.09h-119.4Z"/><g><path class="c" d="M38.07,380.9c-7.76,0-14.5-1.38-20.2-4.16-5.7-2.77-10.11-6.69-13.21-11.75-3.11-5.06-4.66-11.09-4.66-18.06s1.66-13.59,4.97-18.95c3.32-5.36,7.96-9.53,13.93-12.52,5.97-2.98,12.99-4.47,21.05-4.47,4.06,0,8.18,.46,12.36,1.39,3.42,.76,6.54,1.74,9.36,2.96,1.09,.47,1.67,1.66,1.44,2.83l-1.71,8.59c-.39,1.94-2.41,3.08-4.27,2.4-5.73-2.09-11.51-3.14-17.36-3.14-4.42,0-8.27,.84-11.56,2.5-3.29,1.67-5.82,4.01-7.61,7.02-1.79,3.01-2.69,6.57-2.69,10.68,0,6.32,1.88,11.22,5.64,14.71s9.05,5.23,15.85,5.23c1.49,0,2.99-.1,4.48-.31,1.49-.21,2.99-.52,4.48-.94v-11h-8.95c-1.39,0-2.52-1.12-2.52-2.51v-8.12c0-1.39,1.13-2.51,2.52-2.51h22.74c1.39,0,2.52,1.12,2.52,2.51v23.85c0,5.41-3.64,10.18-8.89,11.54-1.22,.31-2.46,.6-3.74,.86-4.6,.92-9.26,1.38-13.97,1.38h0Z"/><path class="c" d="M67.81,379.92l26.07-66.34c.38-.96,1.31-1.59,2.34-1.59h15.29c1.04,0,1.97,.63,2.34,1.59l26.07,66.34h-18.99l-5.29-15.82h-24.72l-5.29,15.82h-17.82Zm27.59-29.32h15.77l-7.88-23.87-7.88,23.87h-.01Z"/><path class="c" d="M145.3,379.92v-65.43c0-1.39,1.13-2.51,2.52-2.51h13.15c1.39,0,2.52,1.12,2.52,2.51v50.85h26.32c1.4,0,2.53,1.13,2.53,2.52v12.05h-47.04Z"/><path class="c" d="M198.96,379.92v-65.43c0-1.39,1.13-2.51,2.52-2.51h13.15c1.39,0,2.52,1.12,2.52,2.51v65.43h-18.19Z"/><path class="c" d="M227.8,379.92v-65.43c0-1.39,1.13-2.51,2.52-2.51h13.15c1.39,0,2.52,1.12,2.52,2.51v50.85h26.37c1.37,0,2.47,1.1,2.47,2.47v12.11h-47.03Z"/><path class="c" d="M281.46,379.92v-65.43c0-1.39,1.13-2.51,2.52-2.51h42.36c1.39,0,2.52,1.12,2.52,2.51v8.65c0,1.39-1.13,2.51-2.52,2.51h-28.3v13.05h24.63c1.39,0,2.52,1.12,2.52,2.51v8.65c0,1.39-1.13,2.51-2.52,2.51h-24.63v13.86h29.55c1.39,0,2.52,1.12,2.52,2.51v11.17h-48.65Z"/><path class="c" d="M334.31,379.92l26.07-66.34c.38-.96,1.31-1.59,2.34-1.59h15.29c1.04,0,1.97,.63,2.34,1.59l26.07,66.34h-18.99l-5.29-15.82h-24.72l-5.29,15.82h-17.82Zm27.59-29.32h15.77l-7.88-23.87-7.88,23.87h0Z"/></g></svg>