<?xml version="1.0" encoding="utf-8"?>
<!-- Generator: Adobe Illustrator 23.0.1, SVG Export Plug-In . SVG Version: 6.00 Build 0)  -->
<svg version="1.1" id="Capa_1" xmlns="http://www.w3.org/2000/svg" xmlns:xlink="http://www.w3.org/1999/xlink" x="0px" y="0px"
	 viewBox="0 0 617.89 463.42" style="enable-background:new 0 0 617.89 463.42;" xml:space="preserve">
<style type="text/css">
	.st0{fill:#DC0E1C;}
	.st1{fill:#8C8D93;}
	.st2{clip-path:url(#SVGID_2_);}
</style>
<g>
	<g>
		<g>
			<path class="st0" d="M308.48,163.89h147.85v71.62H308.48V163.89z M160.63,163.89c0-81.66,66.19-147.85,147.85-147.85
				c40.83,0,77.79,16.55,104.55,43.3l-50.65,50.64c-13.79-13.79-32.85-22.32-53.9-22.32c-42.1,0-76.23,34.12-76.23,76.22
				s34.13,76.23,76.23,76.23h71.62v71.62h-71.62C226.82,311.74,160.63,245.55,160.63,163.89z M384.71,240.12h71.62v71.62h-71.62
				V240.12z"/>
			<path class="st1" d="M472.54,444.8h-23.99l26.79-74.74h24.91l26.78,74.74h-24.39l-2.91-9.86h-24.39L472.54,444.8z M495.48,419.37
				l-7.89-26.78l-7.58,26.78H495.48z M444.51,444.8h-47.95v-74.74h47.95v17.44h-23.45v10.69h23.45v17.44h-23.45v11.74h23.45V444.8z
				 M331.66,444.8h-24.5v-74.74h24.5V444.8z M301.03,444.8h-49.77v-74.74h24.5v57.3h25.27V444.8z M193.56,444.8h-23.98l26.78-74.74
				h24.91l26.79,74.74h-24.39l-2.91-9.86h-24.39L193.56,444.8z M216.5,419.37l-7.89-26.78l-7.57,26.78H216.5z M390.47,444.8h-49.76
				v-74.74h24.49v57.3h25.27L390.47,444.8L390.47,444.8z"/>
			<g>
				<g>
					<g>
						<defs>
							<path id="SVGID_1_" d="M165.39,406.67h-30.83v13.46h8.1c-1.25,5.19-7.58,8.61-12.57,8.61c-12.35,0-15.68-9.65-15.68-20.24
								c0-13.18,4.57-21.91,14.23-21.91c6.33,0,10.8,3.32,12.56,9.45h23.25c-3.01-18.37-17.44-27.72-35.4-27.72
								c-24.2,0-39.14,16.4-39.14,40.28c0,26.05,17.13,38.4,36.23,38.4c6.32,0,9.53-0.74,14.97-3.19l0.01,1.42h24.27L165.39,406.67
								L165.39,406.67z"/>
						</defs>
						<clipPath id="SVGID_2_">
							<use xlink:href="#SVGID_1_"  style="overflow:visible;"/>
						</clipPath>
						<g class="st2">
							<path class="st1" d="M134.56,406.67v13.46h8.1c-1.25,5.19-7.58,8.61-12.57,8.61c-12.35,0-15.68-9.65-15.68-20.24
								c0-13.18,4.57-21.91,14.23-21.91c6.32,0,10.78,3.31,12.55,9.41l16.09-16.09c-6.53-7.7-16.64-11.6-28.23-11.6
								c-24.2,0-39.14,16.4-39.14,40.28c0,26.05,17.13,38.4,36.23,38.4c6.32,0,9.53-0.74,14.97-3.19l0.01,1.42h24.27v-38.56H134.56z
								"/>
							<path class="st1" d="M141.19,396.02c0,0.01,0,0.01,0.01,0.02h23.25c-0.02-0.13-0.05-0.25-0.07-0.38v0.36H141.19z"/>
							<path class="st0" d="M141.17,396.02h0.02c0-0.01,0-0.01-0.01-0.02L141.17,396.02z"/>
							<path class="st0" d="M141.19,396.02h23.19v-0.36c-1.1-6.35-3.58-11.6-7.1-15.75L141.19,396
								C141.19,396.01,141.19,396.01,141.19,396.02z"/>
						</g>
					</g>
				</g>
			</g>
		</g>
	</g>
</g>
</svg>
