<?xml version="1.0" encoding="UTF-8"?><svg id="a" xmlns="http://www.w3.org/2000/svg" viewBox="0 0 622.59 51.56"><defs><style>.b{fill:#ea0029;}.c{fill:#53575a;}</style></defs><path class="c" d="M28.62,12.93c7.88,0,9.37,5.58,9.37,11.21v16.27h-4.25V24.37c0-3.28-.86-7.76-5.69-7.76-4.43,0-6.9,4.31-6.9,9.6v14.2h-4.25V24.37c0-3.28-.86-7.76-5.69-7.76-4.43,0-6.96,4.31-6.96,9.6v14.2H0V13.45H4.25l-.06,4.31h.17c1.32-2.76,4.14-4.83,7.42-4.83,5.29,0,7.7,2.47,8.68,5.81,1.15-3.33,4.37-5.81,8.16-5.81Z"/><path class="c" d="M61.34,36.84c-1.03,1.15-3.73,4.14-8.85,4.14s-9.26-3.27-9.26-8.22c0-4.6,3.39-7.82,10.75-8.16l7.3-.35v-1.21c0-4.54-3.05-6.55-7.13-6.55s-7.24,1.61-7.99,2.13l-1.44-3.05c1.78-1.03,5.35-2.64,9.6-2.64,7.88,0,11.26,4.08,11.26,11.67v15.81h-4.19l-.06-3.56Zm-7.01-9.14c-5,.23-6.67,2.24-6.67,5s2.24,4.89,5.69,4.89c3.68,0,6.72-2.13,7.99-3.85v-6.38l-7.01,.35ZM57.26,.75h4.54l-6.44,8.33h-3.39L57.26,.75Z"/><path class="c" d="M80.67,37.59c2.93,0,5.75-1.26,5.75-4.48s-4.54-4.31-6.61-5c-1.95-.63-7.7-1.95-7.7-7.64,0-4.94,4.31-7.53,8.68-7.53s6.96,1.44,8.85,3.16l-2.07,2.59c-1.9-1.61-4.37-2.47-6.78-2.47-2.82,0-4.77,1.32-4.77,3.85s2.76,3.62,5.75,4.6c2.7,.92,8.68,2.3,8.68,8.1,0,5.17-4.31,8.22-9.89,8.22-4.43,0-7.99-1.9-10-4.77l2.24-2.7c2.59,2.93,5.29,4.08,7.88,4.08Z"/><path class="c" d="M119.07,40.98c-7.93,0-13.28-5.46-13.28-14.14,0-7.64,5.23-13.91,13.28-13.91,7.42,0,12.53,5.35,12.53,12.76,0,.98-.17,2.24-.17,2.24h-21.27c.06,5.58,3.91,9.49,9.66,9.49,5.29,0,9.08-3.39,9.08-3.39l1.84,2.53c-2.47,2.93-6.38,4.43-11.67,4.43Zm-.17-24.49c-5.4-.06-8.33,4.02-8.68,8.22h17.07c0-3.79-2.47-8.16-8.39-8.22Z"/><path class="c" d="M145.07,37.59c2.93,0,5.75-1.26,5.75-4.48s-4.54-4.31-6.61-5c-1.95-.63-7.7-1.95-7.7-7.64,0-4.94,4.31-7.53,8.68-7.53s6.96,1.44,8.85,3.16l-2.07,2.59c-1.9-1.61-4.37-2.47-6.78-2.47-2.82,0-4.77,1.32-4.77,3.85s2.76,3.62,5.75,4.6c2.7,.92,8.68,2.3,8.68,8.1,0,5.17-4.31,8.22-9.89,8.22-4.43,0-7.99-1.9-10-4.77l2.24-2.7c2.59,2.93,5.29,4.08,7.88,4.08Z"/><path class="c" d="M160.94,13.39h4.25v4.77h.06c1.49-2.53,5.06-5.23,9.83-5.23,8.28,0,13.1,5.98,13.1,13.97s-5.46,14.08-12.99,14.08c-3.97,0-7.88-1.55-9.94-5.17l-.06-.06v15.46h-4.25V13.39Zm22.82,13.51c0-5.86-3.39-10.4-9.37-10.4-5.4,0-9.37,4.54-9.37,10.4s3.22,10.35,9.26,10.35,9.48-4.54,9.48-10.35Z"/><path class="c" d="M209.86,36.84c-1.03,1.15-3.74,4.14-8.85,4.14s-9.26-3.27-9.26-8.22c0-4.6,3.39-7.82,10.75-8.16l7.3-.35v-1.21c0-4.54-3.05-6.55-7.13-6.55s-7.24,1.61-7.99,2.13l-1.44-3.05c1.78-1.03,5.35-2.64,9.6-2.64,7.87,0,11.26,4.08,11.26,11.67v15.81h-4.19l-.06-3.56Zm-7.01-9.14c-5,.23-6.67,2.24-6.67,5s2.24,4.89,5.69,4.89c3.68,0,6.72-2.13,7.99-3.85v-6.38l-7.01,.35Z"/><path class="c" d="M233.15,41.04c-7.24,0-13.39-5.17-13.39-14.08s6.5-14.03,13.62-14.03c5.98,0,8.56,1.95,10.4,3.62l-1.9,3.33c-1.78-1.67-4.14-3.1-8.34-3.1-5.23,0-9.42,3.91-9.42,10.12s4.14,10.29,9.83,10.29,8.28-3.56,8.28-3.56l1.84,3.1c-1.27,1.44-4.14,4.31-10.92,4.31Z"/><path class="c" d="M251.21,7.13c-1.78,0-3.05-1.27-3.05-2.93s1.27-2.93,3.05-2.93,2.99,1.27,2.99,2.93c-.06,1.67-1.27,2.93-2.99,2.93Zm-2.13,6.32h4.25v26.96h-4.25V13.45Z"/><path class="c" d="M259.78,27.01c0-8.22,6.15-14.08,14.03-14.08s14.08,5.86,14.08,14.08-6.21,13.97-14.08,13.97-14.03-5.69-14.03-13.97Zm23.74-.11c0-5.81-3.73-10.29-9.71-10.29s-9.66,4.48-9.66,10.29,3.68,10.35,9.66,10.35,9.71-4.6,9.71-10.35Z"/><path class="b" d="M335.09,18.11c-3.68,0-5.58,3.16-5.58,7.93v14.37h-7.36v-15.63c0-3.79-.98-6.67-4.48-6.67-3.79,0-5.46,3.56-5.46,7.93v14.37h-7.36V12.59h7.36l-.06,4.19h.17c1.27-2.59,4.66-4.71,8.28-4.71,4.02,0,6.44,1.61,7.76,5.29,1.96-3.39,5.12-5.29,9.14-5.29,7.3,0,9.31,5.17,9.31,11.55v16.78h-7.36v-15.58c0-3.39-.75-6.72-4.37-6.72Z"/><path class="b" d="M367.47,35.41c3.74,0,7.07-1.67,8.39-2.82l2.87,3.97c-1.55,1.61-5.75,4.48-12.53,4.48-8.39,0-14.6-5.12-14.6-14.08s6.49-14.89,14.43-14.89c8.56,0,13.74,5.63,13.74,13.05,0,1.44-.11,3.73-.11,3.73h-20.46c.69,4.43,4.08,6.55,8.28,6.55Zm-8.39-11.32h13.34c-.11-3.05-1.27-6.55-6.44-6.55-4.37,0-6.67,3.05-6.9,6.55Z"/><path class="b" d="M381.34,45.7c3.05,0,3.51-2.47,3.51-5.92V12.59h7.36v27.53c0,3.39-.52,6.32-2.01,8.16-1.55,1.84-3.74,3.27-7.42,3.27-2.64,0-3.85-.52-3.85-.52l.12-5.75,.86,.4h1.44Zm2.76-41.62c0-2.36,1.84-4.08,4.43-4.08s4.43,1.72,4.43,4.08-1.84,4.08-4.43,4.08-4.43-1.67-4.43-4.08Z"/><path class="b" d="M397.49,26.61c0-8.8,6.55-14.54,15.12-14.54s15.06,5.75,15.06,14.54-6.55,14.43-15.06,14.43-15.12-5.63-15.12-14.43Zm15.12-8.62c-4.83,0-7.47,3.68-7.47,8.45s2.64,8.51,7.47,8.51,7.47-3.74,7.47-8.51-2.76-8.45-7.47-8.45Z"/><path class="b" d="M440.04,12.59l-.11,4.48h.17c1.09-2.99,3.85-5,6.84-5,1.9,0,2.93,.52,2.93,.52l-.52,6.38h-.34c-.81-.23-2.07-.35-3.05-.35-2.18,0-3.85,.92-4.89,2.7-.69,1.38-1.03,3.28-1.03,5.4v13.68h-7.3V12.59h7.3Z"/><path class="b" d="M472.53,16.55c2.24-3.34,5.58-4.6,9.26-4.6,8.16,0,13.16,6.32,13.16,14.6s-5.23,14.37-13.68,14.37c-4.25,0-6.61-1.5-8.91-4.26l-.11,.06c.06,1.32,.11,2.59,.11,4.54v9.66h-7.3V12.59h7.47l-.11,3.91,.11,.06Zm-.35,10c0,4.66,3.05,8.74,7.76,8.74s7.53-4.08,7.53-8.74-2.99-8.62-7.76-8.62c-4.43,0-7.53,3.39-7.53,8.62Z"/><path class="b" d="M507.37,12.59l-.11,4.48h.17c1.09-2.99,3.85-5,6.84-5,1.9,0,2.93,.52,2.93,.52l-.52,6.38h-.35c-.81-.23-2.07-.35-3.05-.35-2.18,0-3.85,.92-4.89,2.7-.69,1.38-1.04,3.28-1.04,5.4v13.68h-7.3V12.59h7.3Z"/><path class="b" d="M534.57,35.41c3.74,0,7.07-1.67,8.39-2.82l2.87,3.97c-1.55,1.61-5.75,4.48-12.53,4.48-8.39,0-14.6-5.12-14.6-14.08s6.5-14.89,14.43-14.89c8.56,0,13.74,5.63,13.74,13.05,0,1.44-.11,3.73-.11,3.73h-20.46c.69,4.43,4.08,6.55,8.28,6.55Zm-8.39-11.32h13.33c-.11-3.05-1.27-6.55-6.44-6.55-4.37,0-6.67,3.05-6.9,6.55Z"/><path class="b" d="M573.49,31.9l2.07,5.4c-.57,.52-3.45,3.74-10.86,3.74s-14.6-5.23-14.6-14.31,7.24-14.66,14.71-14.66c7.01,0,9.77,2.82,10.52,3.56l-2.01,5.52c-.86-.81-3.33-2.93-7.64-2.93s-7.88,3.05-7.88,8.16,3.51,8.45,8.28,8.45,7.42-2.93,7.42-2.93Z"/><path class="b" d="M579.02,4.08c0-2.36,1.84-4.08,4.43-4.08s4.43,1.72,4.43,4.08-1.84,4.08-4.43,4.08-4.43-1.67-4.43-4.08Zm8.1,8.51v27.82h-7.36V12.59h7.36Z"/><path class="b" d="M592.42,26.61c0-8.8,6.55-14.54,15.12-14.54s15.06,5.75,15.06,14.54-6.55,14.43-15.06,14.43-15.12-5.63-15.12-14.43Zm15.12-8.62c-4.83,0-7.47,3.68-7.47,8.45s2.64,8.51,7.47,8.51,7.47-3.74,7.47-8.51-2.76-8.45-7.47-8.45Z"/></svg>