<?xml version="1.0" encoding="UTF-8"?> <svg xmlns="http://www.w3.org/2000/svg" id="Capa_1" data-name="Capa 1" viewBox="0 0 188 39"><title>SLOGAN M2</title><path d="M81.38,22.33l-1.17,0a3.59,3.59,0,0,0-1.11.19,1.89,1.89,0,0,0-.85.56,1.75,1.75,0,0,0-.32,1.13,2.09,2.09,0,0,0,.36,1.22,1.26,1.26,0,0,0,1.13.53,1.94,1.94,0,0,0,.71-.13,1.56,1.56,0,0,0,.67-.55,3.21,3.21,0,0,0,.47-1.11,6.88,6.88,0,0,0,.11-1.86m0,3.35h0a2.68,2.68,0,0,1-.93,1.21,2.65,2.65,0,0,1-1.46.35A3.09,3.09,0,0,1,77.73,27a2.25,2.25,0,0,1-.8-.66,2.73,2.73,0,0,1-.43-1,6.29,6.29,0,0,1-.11-1.26,2.52,2.52,0,0,1,1.67-2.58,5.48,5.48,0,0,1,1.62-.34c.59,0,1.16-.05,1.7,0,0-.31,0-.62,0-.94a2.79,2.79,0,0,0-.17-.85,1.31,1.31,0,0,0-.49-.6,1.57,1.57,0,0,0-.94-.24,1.48,1.48,0,0,0-1.19.46,1.66,1.66,0,0,0-.3,1.23H76.62A2.74,2.74,0,0,1,77.48,18a3.75,3.75,0,0,1,2.35-.64,4.27,4.27,0,0,1,1.51.22,2.23,2.23,0,0,1,.94.63,1.93,1.93,0,0,1,.49.9,3.92,3.92,0,0,1,.15,1.11V24.8c0,.37,0,.76,0,1.14s.09.75.15,1.11H81.42Z" fill="#1a171b" fill-rule="evenodd"></path><rect x="85.9" y="13.46" width="1.54" height="13.59" fill="#1a171b"></rect><path d="M99,27.05V20.46a5.34,5.34,0,0,0,0-.69,1.62,1.62,0,0,0-.23-.59,1.18,1.18,0,0,0-.47-.41,1.61,1.61,0,0,0-.75-.15,1.85,1.85,0,0,0-.78.19,1.24,1.24,0,0,0-.56.45,2.36,2.36,0,0,0-.28.75,3.47,3.47,0,0,0-.08.64v6.4H94.22V19.52c0-.32,0-.65,0-1s0-.67-.05-1h1.63v1.18h0a2.1,2.1,0,0,1,.92-1.07,3.23,3.23,0,0,1,1.45-.3,3.09,3.09,0,0,1,.66.07,2.29,2.29,0,0,1,.64.21,2.09,2.09,0,0,1,.55.4,1.58,1.58,0,0,1,.37.54,2,2,0,0,1,1-1,3.36,3.36,0,0,1,1.26-.24,5.07,5.07,0,0,1,.83.07,2.1,2.1,0,0,1,.85.32,2,2,0,0,1,.66.74,2.87,2.87,0,0,1,.27,1.33v7.23h-1.55V20.46a4,4,0,0,0-.06-.69,1.61,1.61,0,0,0-.22-.59,1.33,1.33,0,0,0-.47-.41,1.69,1.69,0,0,0-.76-.15,3.61,3.61,0,0,0-.66.05A1.56,1.56,0,0,0,101,19a1.25,1.25,0,0,0-.28.38,3.53,3.53,0,0,0-.15.46,2.78,2.78,0,0,0-.07.48,2.73,2.73,0,0,0,0,.35v6.4Z" fill="#1a171b" fill-rule="evenodd"></path><path d="M113.1,21.63A6.93,6.93,0,0,0,113,20a2.35,2.35,0,0,0-.38-.95,1.06,1.06,0,0,0-.6-.43,2.71,2.71,0,0,0-.77-.09,1.92,1.92,0,0,0-.69.11,1.11,1.11,0,0,0-.57.45,2.89,2.89,0,0,0-.4,1,6.75,6.75,0,0,0-.15,1.58Zm-3.71,1.17a8.66,8.66,0,0,0,.13,1.62,2.9,2.9,0,0,0,.38,1,1.31,1.31,0,0,0,.61.47,2.76,2.76,0,0,0,.8.11,1.52,1.52,0,0,0,1.21-.55,1.71,1.71,0,0,0,.32-.56,2.4,2.4,0,0,0,.13-.69h1.69a2.88,2.88,0,0,1-.92,2.33,3.63,3.63,0,0,1-2.39.73,5.8,5.8,0,0,1-1.41-.16,2.31,2.31,0,0,1-1.15-.66A3.67,3.67,0,0,1,108,25a9,9,0,0,1-.29-2.53c0-.69,0-1.34.1-2a4.81,4.81,0,0,1,.47-1.62,2.79,2.79,0,0,1,1.09-1.09,4,4,0,0,1,2-.41,4.27,4.27,0,0,1,1.68.28,2.25,2.25,0,0,1,1,.87,3.65,3.65,0,0,1,.53,1.43,12.11,12.11,0,0,1,.15,2v.81Z" fill="#1a171b" fill-rule="evenodd"></path><path d="M117.26,17.55h1.55V28.37a3.5,3.5,0,0,1-.12,1,1.34,1.34,0,0,1-.39.72,1.65,1.65,0,0,1-.81.43,5.17,5.17,0,0,1-1.38.15V29.33a3.23,3.23,0,0,0,.46,0,.77.77,0,0,0,.36-.12l.24-.26a1,1,0,0,0,.09-.47Zm-.09-4.09h1.73v1.65h-1.73Z" fill="#1a171b" fill-rule="evenodd"></path><path d="M124.83,26a1.9,1.9,0,0,0,1-.22,1.48,1.48,0,0,0,.62-.72,4,4,0,0,0,.31-1.28,18.35,18.35,0,0,0,.09-2,6.75,6.75,0,0,0-.15-1.58,2.37,2.37,0,0,0-.4-1,1.32,1.32,0,0,0-.64-.49,2.3,2.3,0,0,0-.81-.13,2.45,2.45,0,0,0-.83.13,1.32,1.32,0,0,0-.62.49,2.69,2.69,0,0,0-.41,1,7.52,7.52,0,0,0-.13,1.58c0,.78,0,1.44.07,2a4.58,4.58,0,0,0,.32,1.28,1.56,1.56,0,0,0,.6.72,2,2,0,0,0,1,.22m0,1.26a5.8,5.8,0,0,1-1.41-.16,2.35,2.35,0,0,1-1.15-.66A3.67,3.67,0,0,1,121.5,25a9.06,9.06,0,0,1-.28-2.53c0-.69,0-1.34.09-2a4.81,4.81,0,0,1,.47-1.62,2.79,2.79,0,0,1,1.09-1.09,4.89,4.89,0,0,1,3.92,0,2.7,2.7,0,0,1,1.08,1.09,4.39,4.39,0,0,1,.46,1.62,15.28,15.28,0,0,1,.12,2,9,9,0,0,1-.29,2.53,3.55,3.55,0,0,1-.77,1.45,2.32,2.32,0,0,1-1.14.66,5.94,5.94,0,0,1-1.42.16" fill="#1a171b" fill-rule="evenodd"></path><path d="M132.5,19h0a4,4,0,0,1,.51-.87,2.16,2.16,0,0,1,.62-.49,2.3,2.3,0,0,1,.79-.2,7.89,7.89,0,0,1,1-.06V19l-.21,0-.2,0-.21,0-.21,0a2.2,2.2,0,0,0-1,.23,1.8,1.8,0,0,0-.66.59,2.16,2.16,0,0,0-.34.82,4.34,4.34,0,0,0-.09.94v5.61H131v-9.5h1.55Z" fill="#1a171b" fill-rule="evenodd"></path><path d="M144.81,26a1.75,1.75,0,0,0,1-.24,1.57,1.57,0,0,0,.56-.72,3.8,3.8,0,0,0,.27-1.2,16.57,16.57,0,0,0,.07-1.68c0-.35,0-.73,0-1.15a3.85,3.85,0,0,0-.2-1.15,2,2,0,0,0-.59-.86,1.54,1.54,0,0,0-1.11-.36,1.34,1.34,0,0,0-1.07.43,2.58,2.58,0,0,0-.51,1.08,5.67,5.67,0,0,0-.15,1.34v1.24c0,.31,0,.66,0,1.05a3.84,3.84,0,0,0,.2,1,2.32,2.32,0,0,0,.55.84,1.42,1.42,0,0,0,1,.33M143,18.67h0a2.83,2.83,0,0,1,.9-1,2.29,2.29,0,0,1,1.28-.34,3.78,3.78,0,0,1,1.11.17,2,2,0,0,1,1,.66,3.84,3.84,0,0,1,.7,1.45,9.81,9.81,0,0,1,.26,2.5c0,.59,0,1.19-.06,1.81a5,5,0,0,1-.35,1.64,2.78,2.78,0,0,1-.94,1.2,3.1,3.1,0,0,1-1.79.45A2.38,2.38,0,0,1,144,27a2.93,2.93,0,0,1-.9-.86H143v4.55h-1.54V17.55H143Z" fill="#1a171b" fill-rule="evenodd"></path><path d="M152.36,19h0a4,4,0,0,1,.5-.87,2.16,2.16,0,0,1,.62-.49,2.35,2.35,0,0,1,.8-.2,7.78,7.78,0,0,1,1-.06V19l-.21,0-.21,0-.21,0-.21,0a2.2,2.2,0,0,0-1.05.23,1.89,1.89,0,0,0-.66.59,2.33,2.33,0,0,0-.34.82,5.07,5.07,0,0,0-.09.94v5.61h-1.55v-9.5h1.55Z" fill="#1a171b" fill-rule="evenodd"></path><path d="M162.24,21.63a6.93,6.93,0,0,0-.15-1.63,2.51,2.51,0,0,0-.37-.95,1.12,1.12,0,0,0-.61-.43,2.67,2.67,0,0,0-.77-.09,1.92,1.92,0,0,0-.69.11,1.11,1.11,0,0,0-.57.45,2.89,2.89,0,0,0-.4,1,6.83,6.83,0,0,0-.14,1.58Zm-3.7,1.17a7.88,7.88,0,0,0,.13,1.62,2.91,2.91,0,0,0,.37,1,1.31,1.31,0,0,0,.61.47,2.86,2.86,0,0,0,.8.11A1.62,1.62,0,0,0,162,24.87a2.4,2.4,0,0,0,.13-.69h1.69a2.87,2.87,0,0,1-.91,2.33,3.68,3.68,0,0,1-2.4.73,5.8,5.8,0,0,1-1.41-.16,2.35,2.35,0,0,1-1.15-.66,3.67,3.67,0,0,1-.77-1.45,9.06,9.06,0,0,1-.28-2.53c0-.69,0-1.34.09-2a4.59,4.59,0,0,1,.47-1.62,2.75,2.75,0,0,1,1.1-1.09,3.93,3.93,0,0,1,2-.41,4.27,4.27,0,0,1,1.68.28,2.28,2.28,0,0,1,1,.87,3.65,3.65,0,0,1,.52,1.43,12.11,12.11,0,0,1,.15,2v.81Z" fill="#1a171b" fill-rule="evenodd"></path><path d="M171.41,20.6a2.7,2.7,0,0,0-.11-1A1.45,1.45,0,0,0,171,19a.91.91,0,0,0-.43-.31,1.25,1.25,0,0,0-.46-.09,2.39,2.39,0,0,0-.82.13,1.32,1.32,0,0,0-.62.49,2.52,2.52,0,0,0-.42,1,7.52,7.52,0,0,0-.13,1.58c0,.78,0,1.44.08,2a4.28,4.28,0,0,0,.31,1.28,1.68,1.68,0,0,0,.6.72,2.14,2.14,0,0,0,1,.22,1.12,1.12,0,0,0,.38-.08,1.13,1.13,0,0,0,.47-.31,2.09,2.09,0,0,0,.38-.64,2.74,2.74,0,0,0,.15-1.06h1.62a3.71,3.71,0,0,1-.3,1.66,3.09,3.09,0,0,1-.79,1,2.74,2.74,0,0,1-1,.52,3.13,3.13,0,0,1-.93.15,5.8,5.8,0,0,1-1.41-.16,2.35,2.35,0,0,1-1.15-.66,3.65,3.65,0,0,1-.77-1.46,8.93,8.93,0,0,1-.28-2.52c0-.69,0-1.34.09-2a5.05,5.05,0,0,1,.47-1.62,2.81,2.81,0,0,1,1.1-1.09,4,4,0,0,1,2-.41,2.81,2.81,0,0,1,2.2.83A3.09,3.09,0,0,1,173,20.6Z" fill="#1a171b" fill-rule="evenodd"></path><path d="M177.36,27.05h-1.54v-9.5h1.54Zm-1.64-13.59h1.74v1.65h-1.74Z" fill="#1a171b" fill-rule="evenodd"></path><path d="M183.39,26a1.92,1.92,0,0,0,1-.22A1.59,1.59,0,0,0,185,25a4,4,0,0,0,.3-1.28,18.35,18.35,0,0,0,.09-2,6.75,6.75,0,0,0-.15-1.58,2.24,2.24,0,0,0-.4-1,1.3,1.3,0,0,0-.63-.49,2.3,2.3,0,0,0-.81-.13,2.45,2.45,0,0,0-.83.13,1.32,1.32,0,0,0-.62.49,2.52,2.52,0,0,0-.42,1,8.27,8.27,0,0,0-.13,1.58c0,.78,0,1.44.08,2a4.26,4.26,0,0,0,.32,1.28,1.56,1.56,0,0,0,.6.72,2,2,0,0,0,1,.22m0,1.26a5.8,5.8,0,0,1-1.41-.16,2.27,2.27,0,0,1-1.15-.66,3.43,3.43,0,0,1-.77-1.45,9,9,0,0,1-.29-2.53c0-.69,0-1.34.1-2a4.59,4.59,0,0,1,.47-1.62,2.72,2.72,0,0,1,1.09-1.09,4.89,4.89,0,0,1,3.92,0,2.67,2.67,0,0,1,1.07,1.09,4.21,4.21,0,0,1,.47,1.62,17.41,17.41,0,0,1,.11,2,9.06,9.06,0,0,1-.28,2.53,3.43,3.43,0,0,1-.77,1.45,2.35,2.35,0,0,1-1.15.66,5.8,5.8,0,0,1-1.41.16" fill="#1a171b" fill-rule="evenodd"></path><polygon points="2.62 27.05 1 27.05 1 13.46 3.81 13.46 7.23 24.87 7.27 24.87 10.74 13.46 13.6 13.46 13.6 27.05 11.86 27.05 11.86 14.97 11.83 14.97 8.03 27.05 6.39 27.05 2.66 14.97 2.62 14.97 2.62 27.05" fill="#1a171b" fill-rule="evenodd"></polygon><path d="M21.35,22.33l-1.16,0a3.59,3.59,0,0,0-1.11.19,1.89,1.89,0,0,0-.85.56,1.73,1.73,0,0,0-.32,1.13,2.09,2.09,0,0,0,.36,1.22A1.25,1.25,0,0,0,19.4,26a2,2,0,0,0,.71-.13,1.43,1.43,0,0,0,.66-.55,2.87,2.87,0,0,0,.47-1.11,6.88,6.88,0,0,0,.11-1.86m0,3.35h0a2.6,2.6,0,0,1-.92,1.21,2.67,2.67,0,0,1-1.47.36A3,3,0,0,1,17.71,27a2.09,2.09,0,0,1-.8-.66,2.73,2.73,0,0,1-.43-1,6.29,6.29,0,0,1-.11-1.26A2.52,2.52,0,0,1,18,21.54a5.48,5.48,0,0,1,1.62-.34c.59,0,1.15-.05,1.69,0a7.37,7.37,0,0,0,0-.94,2.79,2.79,0,0,0-.16-.85,1.27,1.27,0,0,0-.5-.6,1.53,1.53,0,0,0-.94-.24,1.46,1.46,0,0,0-1.18.46,1.66,1.66,0,0,0-.3,1.23H16.59A2.74,2.74,0,0,1,17.46,18a3.74,3.74,0,0,1,2.35-.64,4.27,4.27,0,0,1,1.51.22,2.23,2.23,0,0,1,.94.63,2,2,0,0,1,.49.9,3.92,3.92,0,0,1,.15,1.11V24.8c0,.37,0,.76,0,1.14a9.89,9.89,0,0,0,.15,1.11h-1.7Zm.7-12.22-2.47,2.66H18.36L20,13.46Z" fill="#1a171b" fill-rule="evenodd"></path><path d="M32,24.34a3.14,3.14,0,0,1-.26,1.34,2.35,2.35,0,0,1-.7.91,2.92,2.92,0,0,1-1.05.49,5,5,0,0,1-1.31.16,3.73,3.73,0,0,1-2.42-.71,2.81,2.81,0,0,1-.85-2.37h1.75c0,.14,0,.31,0,.52a1.79,1.79,0,0,0,.19.61,1.45,1.45,0,0,0,.47.49,1.74,1.74,0,0,0,.9.2,1.91,1.91,0,0,0,1.17-.35,1.31,1.31,0,0,0,.47-1.1.9.9,0,0,0-.36-.71,3.3,3.3,0,0,0-.87-.59c-.35-.19-.72-.36-1.14-.54a8.38,8.38,0,0,1-1.15-.64,3.83,3.83,0,0,1-.88-.87A2.11,2.11,0,0,1,25.67,20a2.85,2.85,0,0,1,.13-.83,2.17,2.17,0,0,1,.49-.85,3.05,3.05,0,0,1,1-.66,4.87,4.87,0,0,1,2.85-.09,2.63,2.63,0,0,1,1,.47,2.05,2.05,0,0,1,.66.84A2.46,2.46,0,0,1,32,20.05H30.24a1.43,1.43,0,0,0-.38-1.13,1.47,1.47,0,0,0-1.11-.39,1.69,1.69,0,0,0-1.05.33,1.12,1.12,0,0,0-.41.95.93.93,0,0,0,.33.71,4.39,4.39,0,0,0,.89.56c.35.18.73.36,1.15.53a6.32,6.32,0,0,1,1.14.64,3,3,0,0,1,.87.87A2.07,2.07,0,0,1,32,24.34" fill="#1a171b" fill-rule="evenodd"></path><path d="M38.54,34.43H67.21V5.76H38.54ZM58.2,25.57H56.27V18.7c0-2.08-.63-2.95-2.08-2.95-1.66,0-2.48,1.17-2.48,3.54v6.28H49.78V18.86c0-2.05-.72-3.11-2.06-3.11-1.68,0-2.5,1.2-2.5,3.65v6.17H43.28V14.24h1.94v1.24A3.16,3.16,0,0,1,48,14a3.43,3.43,0,0,1,3.12,1.82A3.61,3.61,0,0,1,54.5,14c2.45,0,3.7,1.5,3.7,4.42Zm5.74-8v.75H59.23l2.65-3.07c1-1.13,1.27-1.63,1.27-2.18a1.42,1.42,0,0,0-1.47-1.41c-.86,0-1.37.51-1.45,1.5h-.82a2.45,2.45,0,0,1,.39-1.31,2.27,2.27,0,0,1,1.86-.94A2.19,2.19,0,0,1,64,13c0,.82-.29,1.32-1.57,2.8l-1.5,1.71Z" fill="#e1001a"></path></svg> 